<svg id="Layer_1" data-name="Layer 1" xmlns="http://www.w3.org/2000/svg" viewBox="0 0 1366 32"><defs><style>.cls-1{fill:#fff;fill-rule:evenodd;}</style></defs><title>Subtract</title><path class="cls-1" d="M1356.3,54.58c-5.44,1.16-11.08,1.83-16.75,2.5-8.38,1-16.84,2-24.89,4.64-6.15,1.87-13.72,1-20.58-.34a30.68,30.68,0,0,0-9.7-.68c-4.21.55-8.11-.68-11.94-1.89-.91-.29-1.82-.57-2.73-.83-6.38-1.7-12.54-1.7-19.16-1.19-2.68.11-5.36.07-8,0-1.34,0-2.68,0-4,0-3.31,0-6.38.17-8.28,3.06-1.42,2.21-4.49,1.87-7.33,1.36l-.73-.15a74,74,0,0,0-12-1.72c-10.18-.68-18.69,2-27.21,5.27-2.84,1.19-5.92,2.38-9.23,1.19-4.57-1.76-9.15-1.17-13.72-.58h0a60.88,60.88,0,0,1-6.15.58c-7.77.16-15.32,1-23.07,1.78l-.82.09a27.54,27.54,0,0,1-10.65-1.53c-6.2-2.08-12.58-1.57-18.82-1.06l-2.71.21c-11.59.85-22.71-.17-32.88-3.91a20.72,20.72,0,0,0-6-.93,22.33,22.33,0,0,1-5.57-.77c-8.75-2.72-17.5-4.93-26.49-7-3-.78-6.07,0-9.11.8l-.83.22c-1.92.51-3.77,1.15-5.62,1.8-4.32,1.51-8.64,3-13.78,2.79-2.36-.09-4.67-.22-7-.34s-4.61-.26-7-.34l-1.09-.1h0c-2-.19-4-.37-5.76.78a3.61,3.61,0,0,1-1.89.17c-5.35-1.61-11.07-1.73-16.76-1.86-3.37-.07-6.72-.14-10-.52-.31,0-.64,0-1,0h0a9.14,9.14,0,0,0-2.1,0c-12.06,2.89-22.95,1-32.41-4.59a37.24,37.24,0,0,0-7.75-3,40.15,40.15,0,0,1-7.15-2.66l-.3-.11c-.43-.17-.93-.36-1.12-.23-5.6,1.87-9.84,0-14-1.88-.77-.35-1.54-.69-2.31-1-8.75-3.4-18-4.42-26.49-1.36-5.44,1.87-9.23,1.7-13.73-.17-4.29-1.73-9.05-2.1-13.78-2.47a60.73,60.73,0,0,1-10.58-1.44c-2.45-.68-4.45.26-6.24,1.1-.46.22-.9.43-1.33.6C800.82,42.16,793,43.35,785,43.69a9.72,9.72,0,0,0-6.39,2,16,16,0,0,1-15.38,2.55L762.11,48h0c-4.34-1.28-8.52-2.51-13.1.31-1.33.95-3.47.28-5.09-.22l-.36-.12a58.73,58.73,0,0,0-19.63-1.87,36.9,36.9,0,0,0-7.39,1.62h0c-1.6.46-3.22.94-4.91,1.27a18.88,18.88,0,0,1-9.7-.34c-13.49-4.25-27.45-7.48-42.35-7.82a50.32,50.32,0,0,1-11.36-1.53c-5-1.5-9.85-.35-14.5.76h0l-1.81.42a12.34,12.34,0,0,0-1.6.49,6.24,6.24,0,0,1-3.37.53c-6.33-1-12.41.08-18.42,1.13h0c-2.31.4-4.6.8-6.89,1.08a31.88,31.88,0,0,1-4,.17,27.44,27.44,0,0,0-10.4,1.36c-6.18,2.09-12.78,3.18-19.36,4.26-2,.33-4,.66-6,1a19.58,19.58,0,0,1-7.84-.56c-1-.23-2.12-.47-3.28-.63-5-.57-10,.19-15,1l-2.73.4-.87.16-1.23.23c-5,.93-10,1.87-15.17,1a8.17,8.17,0,0,0-3.55.17c-9.46,3.91-19.87,4.42-30.52,4.76a7.79,7.79,0,0,0-4.06,1.54,10.55,10.55,0,0,1-4.69,1.86,9.31,9.31,0,0,0-1.74.22,5,5,0,0,1-2.28.12,37,37,0,0,0-10.67-.89,40.63,40.63,0,0,1-9.68-.64c-7.1-1.59-14.31-1.36-21.48-1.14-3.58.12-7.15.23-10.69.12a14.44,14.44,0,0,0-1.59-.06,6.45,6.45,0,0,1-2.91-.45c-3.78-1.7-7.33-2.38-10.41.85a4.6,4.6,0,0,1-4.73.85c-3.55-1.19-7.1-.85-10.64-.51a5.11,5.11,0,0,0-.75.07,2.86,2.86,0,0,1-1.62-.07c-4.61-2.43-10-2.85-15.4-3.27a77,77,0,0,1-8.49-1c-9-1.87-18-1.87-27.21-1.19a37.14,37.14,0,0,1-7.49-.53h0a35.86,35.86,0,0,0-8.36-.49c-3.91.34-7.87.55-11.83.76s-7.93.43-11.83.77c-3.31.17-5.91.17-9-1a25.66,25.66,0,0,0-14-2c-2.13.34-4,.68-5.44,2-3.07,2.72-7.1,3.57-11.59,3.4-2.72-.09-5.44-.26-8.16-.43s-5.44-.34-8.17-.42a10.47,10.47,0,0,1-5.67-1.36c-1.92-1.23-4.22-1.08-6.73-.91h0l-.84.06c-7.81.51-14.67,1.36-18.93,7-.71,1-4.49,1.53-6.62,1.36-6.05-.64-12-.13-17.85.38h0c-1.94.17-3.88.34-5.81.47-1.56.09-3.11.14-4.66.18h0A53.11,53.11,0,0,0,158,63.76a10.77,10.77,0,0,1-6.15-.17c-7.88-3.37-15.76-1.93-23.52-.51-2,.37-4,.74-6.05,1-7.33,1-14,1-20.34-1.53A22.62,22.62,0,0,0,89,61l-1.12.19-.22,0c-8.35,1.47-17.08,3-25.39,3-5.3,0-9.73,1.18-14.18,2.36h0c-2.1.55-4.2,1.11-6.4,1.55-6.15,1.19-10.88-.34-15.38-2.72a22.37,22.37,0,0,0-8.52-2.38A87.27,87.27,0,0,1,5.33,60.85h0C3.56,60.45,1.79,60,0,59.68V69H1366V54.58A30.93,30.93,0,0,0,1356.3,54.58Z" transform="translate(0 -37)"/></svg>